<?xml version="1.0" standalone="no"?>
<!DOCTYPE svg PUBLIC "-//W3C//DTD SVG 20010904//EN"
 "http://www.w3.org/TR/2001/REC-SVG-20010904/DTD/svg10.dtd">
<svg version="1.0" xmlns="http://www.w3.org/2000/svg"
 width="1472.000000pt" height="832.000000pt" viewBox="0 0 1472.000000 832.000000"
 preserveAspectRatio="xMidYMid meet">

<g transform="translate(0.000000,832.000000) scale(0.100000,-0.100000)"
fill="#000000" stroke="none">
<path d="M4578 5200 c-129 -15 -262 -74 -324 -143 -20 -22 -50 -69 -67 -106
-41 -86 -50 -217 -21 -307 51 -164 165 -244 429 -300 235 -50 301 -67 345 -89
112 -57 153 -163 115 -293 -39 -132 -166 -189 -395 -179 -176 8 -286 51 -417
163 l-54 46 -54 -42 c-88 -68 -88 -62 -8 -138 154 -148 326 -212 567 -212 199
0 338 41 439 130 125 110 165 355 84 515 -73 144 -197 214 -494 275 -253 52
-324 84 -362 163 -39 81 -21 198 40 254 84 77 310 104 479 57 71 -21 146 -59
195 -101 l40 -34 62 64 c35 36 63 69 63 74 0 12 -96 85 -160 121 -76 42 -169
70 -275 82 -100 11 -129 11 -227 0z"/>
<path d="M6295 5196 c-318 -64 -544 -278 -633 -601 -24 -85 -23 -316 2 -404
67 -244 235 -440 455 -532 200 -84 482 -79 663 12 73 36 168 106 168 123 0 6
-26 41 -59 76 l-58 65 -43 -39 c-123 -111 -347 -145 -545 -82 -179 57 -315
196 -380 387 -24 73 -28 99 -28 199 0 100 4 126 28 199 61 178 200 322 371
382 172 60 387 37 524 -57 27 -19 54 -34 59 -34 4 0 34 29 66 65 64 74 64 74
-12 126 -64 44 -150 85 -218 103 -85 23 -273 29 -360 12z"/>
<path d="M9230 4405 l0 -786 413 3 412 3 94 33 c135 47 216 98 305 192 57 61
87 105 121 173 58 119 75 186 82 329 13 253 -56 448 -212 609 -100 102 -199
159 -350 201 -75 20 -106 22 -472 26 l-393 4 0 -787z m850 570 c198 -63 324
-199 376 -405 25 -99 15 -302 -18 -392 -54 -145 -155 -264 -273 -322 -101 -49
-166 -57 -473 -54 l-277 3 -2 575 c-1 316 0 586 3 598 l5 24 302 -4 c253 -4
311 -8 357 -23z"/>
<path d="M7982 5068 c-63 -112 -182 -329 -247 -448 -37 -69 -125 -228 -195
-355 -69 -126 -164 -300 -210 -385 -47 -85 -97 -175 -112 -199 -15 -24 -25
-48 -22 -52 3 -5 52 -9 109 -9 l103 0 48 88 c26 48 56 103 67 122 11 19 109
199 219 400 110 201 218 398 240 438 22 39 41 72 43 72 5 0 26 -39 185 -335
62 -115 137 -253 165 -305 29 -52 83 -153 120 -225 37 -71 83 -158 102 -192
l35 -63 102 0 c57 0 105 3 108 6 3 3 -4 24 -17 47 -12 23 -93 173 -180 332
-184 339 -301 552 -359 650 -22 39 -46 82 -52 96 -7 14 -23 43 -36 65 -14 21
-42 71 -63 109 -85 157 -107 195 -115 195 -5 0 -22 -24 -38 -52z"/>
<path d="M7782 4078 c-15 -19 -102 -196 -102 -208 0 -11 652 -15 663 -3 4 3
-19 55 -50 115 l-57 108 -222 0 c-165 0 -224 -3 -232 -12z"/>
<path d="M9195 3115 c-52 -19 -75 -50 -75 -103 0 -57 29 -85 109 -108 106 -29
138 -72 85 -113 -34 -27 -88 -27 -139 -1 -29 15 -42 17 -52 9 -54 -46 99 -110
190 -80 78 26 112 116 66 175 -26 33 -58 50 -127 66 -71 16 -91 51 -52 90 23
23 70 26 119 9 24 -8 35 -8 46 1 22 18 19 28 -12 43 -45 23 -113 28 -158 12z"/>
<path d="M4034 3107 c-2 -7 -3 -96 -2 -197 l3 -185 33 -3 32 -3 0 200 0 201
-30 0 c-17 0 -33 -6 -36 -13z"/>
<path d="M4275 3108 c-3 -8 -4 -97 -3 -198 l3 -185 30 0 30 0 5 133 5 132 89
-135 c80 -122 91 -135 117 -135 l29 0 0 200 0 200 -30 0 -30 0 0 -137 0 -137
-32 47 c-150 218 -153 222 -181 225 -16 2 -29 -2 -32 -10z"/>
<path d="M4710 3090 l0 -30 60 0 60 0 0 -170 0 -170 30 0 30 0 2 173 3 172 60
0 c58 0 60 1 63 28 l3 27 -155 0 -156 0 0 -30z"/>
<path d="M5135 3103 c-7 -19 -5 -319 3 -359 4 -24 5 -24 127 -24 113 0 123 1
128 20 5 19 -15 45 -26 34 -3 -3 -42 -3 -86 1 l-81 7 0 54 0 53 78 3 c76 3 77
3 80 31 l3 27 -80 0 -81 0 0 55 0 54 98 3 97 3 3 28 3 27 -129 0 c-114 0 -131
-2 -137 -17z"/>
<path d="M5547 3083 c-6 -48 -6 -304 0 -337 4 -21 11 -26 34 -26 l29 0 0 75 0
75 43 0 c43 0 44 -1 72 -54 45 -86 57 -98 93 -94 l32 3 -44 75 c-41 68 -43 76
-28 88 43 32 52 44 62 82 9 35 8 47 -7 78 -27 56 -69 72 -184 72 l-97 0 -5
-37z m215 -40 c25 -23 23 -59 -7 -88 -20 -21 -34 -25 -85 -25 l-60 0 0 65 0
65 67 0 c48 0 72 -5 85 -17z"/>
<path d="M5999 3118 c-1 -2 -3 -92 -5 -200 l-3 -198 34 0 34 0 3 136 3 137 90
-137 c85 -130 91 -137 120 -134 l30 3 3 175 c3 210 2 220 -38 220 l-29 0 -3
-137 -3 -137 -88 131 c-48 72 -95 134 -103 137 -16 6 -43 8 -45 4z"/>
<path d="M6530 3113 c-53 -19 -82 -89 -60 -143 15 -36 44 -56 107 -71 79 -20
103 -35 103 -69 0 -58 -76 -77 -157 -41 -40 19 -42 19 -58 1 -15 -16 -14 -19
15 -43 47 -40 153 -47 213 -15 25 13 57 68 57 98 0 63 -47 100 -167 130 -61
15 -79 54 -43 90 25 25 88 27 132 4 30 -15 32 -15 45 2 19 26 17 32 -17 49
-28 15 -137 20 -170 8z"/>
<path d="M6900 2920 l0 -200 30 0 29 0 3 88 3 87 91 3 c106 3 104 6 104 -110
l0 -68 30 0 30 0 -2 198 -3 197 -30 0 -30 0 -3 -82 -3 -83 -94 0 -95 0 0 85 0
85 -30 0 -30 0 0 -200z"/>
<path d="M7390 2920 l0 -200 30 0 30 0 0 200 0 200 -30 0 -30 0 0 -200z"/>
<path d="M7632 2923 l3 -198 30 0 30 0 3 68 c3 61 5 67 25 68 27 1 72 6 113
14 72 13 116 113 81 182 -25 48 -70 63 -186 63 l-101 0 2 -197z m224 112 c22
-34 10 -81 -26 -100 -16 -8 -52 -15 -80 -15 l-50 0 0 70 0 70 70 0 c63 0 71
-2 86 -25z"/>
<path d="M8334 3086 c-71 -71 -32 -162 82 -187 67 -15 104 -42 104 -74 0 -53
-83 -72 -155 -35 l-39 20 -21 -21 -20 -20 23 -19 c75 -62 228 -45 266 29 20
38 20 55 1 95 -18 37 -72 71 -130 81 -22 4 -50 14 -62 21 -30 19 -30 58 -1 78
28 20 94 20 128 1 18 -9 29 -10 37 -3 40 33 -17 68 -113 68 -62 0 -68 -2 -100
-34z"/>
<path d="M8684 3105 c3 -9 35 -65 71 -126 64 -109 65 -111 65 -185 l0 -74 30
0 30 0 0 78 c0 77 1 80 56 173 31 51 62 106 70 122 14 27 14 27 -20 27 -33 0
-37 -4 -86 -91 l-52 -90 -45 77 c-57 101 -60 104 -95 104 -23 0 -29 -4 -24
-15z"/>
<path d="M9480 3096 c0 -25 28 -36 96 -36 l34 0 0 -154 c0 -85 3 -161 6 -170
4 -10 18 -16 35 -16 l29 0 0 175 0 175 60 0 c57 0 60 1 60 25 l0 25 -160 0
-160 0 0 -24z"/>
<path d="M9920 2920 l0 -200 125 0 125 0 0 25 c0 24 -2 24 -92 27 l-93 3 -3
63 -3 62 79 0 c80 0 95 7 85 38 -3 8 -29 12 -84 12 l-79 0 0 54 0 54 95 7 c92
7 95 8 95 31 l0 24 -125 0 -125 0 0 -200z"/>
<path d="M10320 2920 l0 -200 30 0 30 0 0 138 0 137 52 -112 c28 -62 58 -115
66 -118 22 -8 33 8 82 115 24 52 48 99 52 104 4 6 8 -52 8 -127 l0 -137 30 0
30 0 0 201 0 200 -37 -3 -37 -3 -56 -122 c-30 -68 -57 -123 -60 -123 -3 0 -30
53 -59 118 -30 64 -59 120 -65 124 -6 4 -23 8 -38 8 l-28 0 0 -200z"/>
</g>
</svg>
